<?xml version="1.0" encoding="utf-8"?>
<svg version="1.1" id="Layer_1" x="0px" y="0px" viewBox="0 0 1400 980" style="enable-background:new 0 0 1400 980;" xmlns="http://www.w3.org/2000/svg">
  <style type="text/css">
	.st0{fill-rule:evenodd;clip-rule:evenodd;fill:#45949B;}
	.st1{clip-path:url(#SVGID_2_);}
	.st2{fill-rule:evenodd;clip-rule:evenodd;fill:#31666B;}
	.st3{fill-rule:evenodd;clip-rule:evenodd;fill:#FBB03B;}
	.st4{fill-rule:evenodd;clip-rule:evenodd;fill:#FCBA58;}
	.st5{fill-rule:evenodd;clip-rule:evenodd;fill:#F5D19B;}
	.st6{fill-rule:evenodd;clip-rule:evenodd;fill:#F2C88A;}
	.st7{fill-rule:evenodd;clip-rule:evenodd;fill:#E38D33;}
	.st8{fill-rule:evenodd;clip-rule:evenodd;fill:#CF7E27;}
	.st9{fill-rule:evenodd;clip-rule:evenodd;fill:#CC5E4E;}
	.st10{fill-rule:evenodd;clip-rule:evenodd;fill:#F0BA70;}
	.st11{fill-rule:evenodd;clip-rule:evenodd;fill:#FAA11C;}
	.st12{fill-rule:evenodd;clip-rule:evenodd;fill:#F9D2A9;}
	.st13{fill-rule:evenodd;clip-rule:evenodd;}
	.st14{fill-rule:evenodd;clip-rule:evenodd;fill:#FFFFFF;}
	.st15{fill-rule:evenodd;clip-rule:evenodd;fill:#342517;}
	.st16{clip-path:url(#SVGID_4_);}
	.st17{fill-rule:evenodd;clip-rule:evenodd;fill:#FFDDB8;}
	.st18{fill-rule:evenodd;clip-rule:evenodd;fill:#FFD3A5;}
	.st19{fill-rule:evenodd;clip-rule:evenodd;fill:#FF0000;}
	.st20{fill-rule:evenodd;clip-rule:evenodd;fill:#C90808;}
	.st21{clip-path:url(#SVGID_6_);}
	.st22{fill-rule:evenodd;clip-rule:evenodd;fill:#2D150B;}
	.st23{fill-rule:evenodd;clip-rule:evenodd;fill:#36190E;}
	.st24{fill-rule:evenodd;clip-rule:evenodd;fill:#AD521B;}
	.st25{fill-rule:evenodd;clip-rule:evenodd;fill:#C85D20;}
	.st26{fill-rule:evenodd;clip-rule:evenodd;fill:#692915;}
	.st27{clip-path:url(#SVGID_8_);}
	.st28{fill-rule:evenodd;clip-rule:evenodd;fill:#EBB173;}
	.st29{fill-rule:evenodd;clip-rule:evenodd;fill:#F7C188;}
	.st30{fill-rule:evenodd;clip-rule:evenodd;fill:#F1BF89;}
	.st31{fill-rule:evenodd;clip-rule:evenodd;fill:#F5CC9F;}
	.st32{fill-rule:evenodd;clip-rule:evenodd;fill:#C29263;}
	.st33{fill-rule:evenodd;clip-rule:evenodd;fill:#EC7E6D;}
	.st34{fill-rule:evenodd;clip-rule:evenodd;fill:#343231;}
	.st35{clip-path:url(#SVGID_10_);}
	.st36{clip-path:url(#SVGID_12_);}
</style>
  <g style="filter: none;" transform="matrix(2.447835, 0, 0, 2.418075, -1005.773804, -1255.174438)">
    <title>boodogy token</title>
    <g style="">
      <path class="st3" d="M635,631.6c-0.1-0.1-0.2-0.2-0.2-0.2l-2.5-1.7c-0.9-0.6-1.8-1-2.4-2.2l6.3,2.1c-0.9-2.6-2.1-5.7-1.2-8.4 c0.9,0.4,0.6,0.3,1.2,1.2c0.9,1.3,3,3.3,4.5,3.8c-0.5-2.1-0.9-2.7-1.2-5.1c1.7,0.8,1.6,1.5,4,2.9c-0.6-1-2.7-5.7-2.6-7.1 c0-1.9-0.1-0.7,0.5-1.4c0.5,0.7,0.5,1,1.2,1.6c1.3,1.3,3,3,4.9,3.6c-0.6-2.4-2.2-4.7-1.7-7.8c1.5,1,2.9,4.4,5,5.2 c-0.8-1.9-2.2-3.1-2.1-5.5c1.2,0.8,3.4,3.4,7.2,4.6c-1.4-1.9-2.3-2.5-3.1-5.2c2.1,0.9,1.4,1.5,5.9,3.2c-0.7-1.1-2.2-2-2.2-3.6 c2,0.7,3.1,2.5,5.9,2.9c-1.2-1.1-2.8-3.2-2.9-5.2c1.6,1,3,3.3,5.6,4.1c-0.5-1.2-1.3-1.5-2.8-2.9c-2.8-2.7-5.4-5.3-9.2-7 c-1.3-0.6-1.4-0.3-2.3-1.6c0.7-0.7,0.1-0.3,1.2-0.6c6,1.7,9.5,5.4,11.6,6.4l1.4-0.6c0.7-0.2,0.7-0.2,1.3-0.5 c2.6-1.2,5.1-4.7,5.6-4.9c7.2-0.1,15.3,11.9,21.8,11.6c6.5-0.3,14.7-12.4,21.5-11.6l3.4,3.8c3.4,2.9,3.2,2,4.2,1.3l0,1.2 c2.2-0.8,5.7-4.8,12.1-6.9c14.5-4.6,20.6,12,22.9,12.9c7.8,3.2,7.8,1.1,7.1,11.2c2.7-0.6,3.9-2,5.4-2.2c4.4,5,2.6,14.3,2,21.2 c1.4,0.7,4.8,2.9,5.9,3.8c5.3,4.2,5,9.6,8.3,15.2c0.5,0.9,1.5,1.7,1.8,2.4c2.8,1.2,6.5,3.7,7,7c-1.9,0.3-3.4,0.9-4.7,1.5 c0.6,1.8,1.7,2.4,2.9,4c2.5,3.6,6.3,7.8,6.8,12.6l-3.8-0.3l1.6,1.5c3,2.1,8.6,6.4,8.8,10.2c-1.6,0.4-3.2,1.2-3.9,2.3 c2.3,2.8,4.9,4.5,7.3,7.9c1.6,2.3,1,3.6,0.9,6.6c-0.3,9.8,1.8,8.2-3,19.8c1.1,8.4,13.1,11-5,38.7c-0.9,1.3-1.7,2.4-2.7,3.5 l-3,3.3c-1.7,2.2,1.1,8.9-2.7,9.6l-1.1-3.7c-0.3,2.9-0.2,4.9-1.9,6.7c-2.1-0.2-0.2-0.4-1.5-0.8c-0.2,1.9-0.6,2.8-1.2,4.1 c-1.4,0-1.1,0.1-1.9-0.8c-0.7,1.2-0.2,1.1-1.4,2c-0.9-0.5-0.7-0.7-1.3-1.4c-0.2,2.2-0.3,4.3-1.8,5.3c-1.7-0.6-0.8-1-1.7-2.5 c-0.3,2.2-0.1,6.1-2.9,6.2l-0.8-2c-0.3,1.5-0.7,2.7-1.4,3.9c-0.5,1-1.2,1.5-2.1,2c-1.7,0.9-1.1,4.4-4.1,4.3 c-0.7-1-0.8-2.3-0.9-3.9c-0.6,2-0.7,3.2-1.6,5.1c-0.3,0.7-0.7,1.7-1.6,1.8c-1.2,0.2-0.9-0.4-1.9-0.9c-0.5,2.5-0.9,3.6-3.1,4.4 c-1.6,0.6-1.3,4.4-3.7,3.5c-0.7-0.2-0.4-0.2-0.6-0.4c-2.2-1.5,1.4,0.3-0.6-0.5c-0.7,1.5-0.8,1.9-2.1,2.5c-2.5-0.9,0,0.2-1.8-1.3 c-0.3,1.6-0.7,2.3-1.7,3.6c-2.2,0-0.6-0.1-2.1-0.7c-0.4,1.8-0.7,2.8-2.1,3.6c-0.9-0.3-1.1-0.9-1.8-1.3c-0.3,1.8-0.7,2.3-1.7,3.2 c-1.4-0.1-0.7-0.2-1.7-0.7c-0.8,1.1-0.8,1.8-2.7,2.1l-0.7-2.8c-0.5,2.1-1.2,4.1-2.8,5c-1.9-0.5-0.5-0.2-1.8-1.2 c-0.2,1.1-0.8,2-1.5,2.8c-1.2,1.2-1.1,0.7-2.5,0.2c-0.4,1.9-0.9,3.1-2.9,3.1c-0.6-1.4-0.4-1.7-0.4-3.4c-1,2.1-1.7,6.1-4.7,5.3 l-0.5-1.7c0-0.2-0.1-0.2-0.1-0.3c-0.4,1.7-2.1,5.4-3.7,3.7c-0.8-0.9-0.4-2.7-0.3-4.2c-2.2,1.3-2.2,5-5.2,4.5 c-0.2-0.4-0.2-0.6-0.4-1.2c0-0.1-0.1-0.2-0.1-0.3c0-0.1-0.1-0.2-0.1-0.3c0-0.1-0.1-0.1-0.1-0.3c0-0.2-0.1-0.2-0.1-0.3 c-0.6,1.3-1.1,2.2-2.8,2.3c-0.9-1,0.1,0.1-0.5-0.9l-0.6-1c-0.8,1.8-0.8,2.8-2.8,3.1c-0.6-1.6-0.2-3-0.2-4.7 c-0.1,0.7-1.1,2.9-2,3.9c-2.3,2.6-2-0.8-2-2.8l-0.8,1c-3.6,5.6-3.2,1.1-5-2.3c-0.5,2.2-0.8,3.8-2.2,4.8c-2-0.3-2.3-2.2-3.4-3.8 l-0.2,3.7c-2.2,0.2-2.8-2.5-3.6-4l-0.2,4c-2,0.2-2.6-1.7-3-3.4l-0.8,2.3c-1.6,0.1-2.4-1.1-2.9-2.3l-0.6,1.7 c-1.4,3.2-5.5-4.9-6-5.7c0.1,2,1.1,4,0.3,6.1c-2.1,0.9-3.2-1.9-3.8-3.8l-1,2.1c-1.7,0.1-2.1-0.7-2.7-1.8l-1.5-2.8l-0.6,2.6 c-2.1,0-2.4-1.4-3.1-3.4c-0.5,1-0.8,0.7-2,0.6c-1-1.4-1.5-1.8-2-3.5c-1.1,1.1,0.1,0.7-1.3,1.5c-2-0.6-2.8-3.4-3.3-5.6l-0.6,3.2 c-1.8-0.2-1.8-0.3-2.3-2c-1.5,0.5-2.9,1.8-3.7-2.5l-0.4,0.4c-0.1,0.1-0.1,0.1-0.2,0.2c-1.8,1.5-2.4-0.4-3-2 c-0.2-0.5-0.3-0.9-0.5-1.3c-1.5,3.4-2.8-0.7-3.5-2.2c-1,0.5-1,2-2.6,0.6c-0.5-0.5-1-1.8-1.5-2.5c-0.6,1.3-0.7,2.6-2.5,0.9 c-0.9-0.8-1.2-2.4-1.5-3.4c-2.7,0.5-3.1-1.3-3.7-4c-1,0.7-0.7,1.5-2.1,0.9c-1.8-0.8-2.7-5.2-2.9-6.9c-0.2,2-0.1,2.6-0.9,3.9 c-2.3,0-3-2.3-3.4-4.4c-2.1-0.1-2.4-0.7-3-2.1c-0.5-1.1-1-2.6-1.3-3.7l-0.9,2c-1.6-0.1-1.7-0.9-2.1-2.3c-0.3-1.3-0.5-2.4-0.7-3.9 c-1,1.7,0.2,1.9-1.9,2.5c-1.5-1.9-1.3-3.3-1.8-6.2c0,1.1-0.2,1.5-1.2,2.1c-1.1-0.8-0.7-0.5-1-1.8c-0.9,0.3-1.2,0.6-2.2,0.6 c-0.3-0.6-0.8-3.1-1.4-3.2c-0.1,0-0.2,0-0.2,0c-1.4-0.2-1.9-0.6-2.3-2.2c-0.4-1.4-0.4-3.1-0.7-4.3c-0.3,1.7-0.3,2.7-1.5,3.5 c-1.8-0.8-1.6-3.4-1.6-5.6c0-3.9,0.2-3.1-2.1-5.3c-12.1-11.9-1.8-22-5.8-35.4c-2.5-8.2-6.7-12.6-6.4-22.6c0.1-2.5,0.1-4.7,0-7.3 c-0.2-3-0.1-3.8,1.4-5.8c2.1-2.6,5.4-5.3,6.9-7.3c-0.8-1.1-2.6-1.7-3.9-2.3c0.2-5.4,7.6-8.4,10.5-11.6l-3.3-0.2 c-0.7-2.4,2.1-7.4,3.1-9c1.4-2.2,3.2-4,4.9-5.9c0.7-0.7,0.2-0.2,0.7-0.9c-1-0.6-2.6-0.5-3.8-0.6c0.5-2.6,4.2-5.6,5.8-7.4 l37.6-35.8l-7.6-0.9c0.6-7.7,3.7-13.3,6.5-18.6c3.7-6.9,2.3-2.5,4-5.3c1-1.6-0.1-0.7,1.5-1.7c3.3-2,0.5-1.1,3.9-2.2 c3.8-1.3,2-0.5,5.7-0.4c-0.2-1.4,0.2-0.5-0.4-1.6c-4.3,0-7.5,0.7-10.2,3.1c-2,1.7-4.4,3.5-6.5,6.4c-4,5.6-0.9,2.7-7.3,5.5 c-1.6,0.7-3.1,1.4-3.4,3.2c-0.3,1.9,0.1,4.7,0.2,6.7c-3-0.6-3.5-1.7-5.5-2.4c-3.9,9.8-3.1,10-1.9,21.3c-3,1.3-8.8,6.1-10.4,9 c-2.4,4.3-3.5,6-6.1,13.4L635,631.6L635,631.6z M743.5,624.4l0.4-0.5c0.8-0.8,2.2-2.3,3.2-2.7c-0.1,2.4-0.3,3-1.1,5.2 c1.7-0.7,2.1-1.3,3.3-2.5c1.5-1.5,1.8-2.4,2.6-2.6c0.6,3.2-0.3,5.7-1.2,8.3l6.4-2.1c-1.8,2.7-3.8,2.5-5.3,4.2 c1.1,0.3,7,1.9,7.3,0l-0.3-2.9c-0.2-1.4-0.6-2.7-0.9-4c-2.6-10.7-11.8-29.3-26.2-20c-0.6,0.4-0.9,0.7-1.4,1l-5.2,4.5 c-0.7,0.9-0.3,0.4-1.3,1.2c-0.6,0.8-1,1-1.5,1.9c2-0.6,4.9-2.9,5.5-4.3c-0.1,2.6-2,4.2-2.9,5.6c1.4-0.3,1.8-0.5,2.9-1.1 c0.7-0.4,0.5-0.3,1.2-0.8c0.9-0.6,0.6-0.4,1.6-0.9c-0.1,1.1-0.3,1.4-0.9,2.2c-0.5,0.7-0.7,0.6-1.2,1.3c3.3-1,3.6-2.2,5.8-3.1 c-0.3,1.7-2.2,4.7-3.4,5.5c4.3-1.3,5.6-3.9,7.7-4.9c-0.3,2.2-1.5,3.9-2.3,5.5c3-2.3,3.9-4.9,5.1-5.3c0.3,2.6-1,5.6-1.9,7.9 c3.6-1.4,4.8-4.2,6.7-5.3C746.2,620.1,742.8,623.4,743.5,624.4z"/>
    </g>
    <g style="">
      <path class="st4" d="M692.6,613.3c0.3,0,0.6,0,0.9,0c6.5-0.3,14.7-12.4,21.5-11.6l3.4,3.8c3.4,2.9,3.2,2,4.2,1.3l0,1.2 c2.2-0.8,5.7-4.8,12.1-6.9c14.5-4.6,20.6,12,22.9,12.9c7.8,3.2,7.8,1.1,7.1,11.2c2.7-0.6,3.9-2,5.4-2.2c4.4,5,2.6,14.3,2,21.2 c1.4,0.7,4.8,2.9,5.9,3.8c5.3,4.2,5,9.6,8.3,15.2c0.5,0.9,1.5,1.7,1.8,2.4c2.8,1.2,6.5,3.7,7,7c-1.9,0.3-3.4,0.9-4.7,1.5 c0.6,1.8,1.7,2.4,2.9,4c2.5,3.6,6.3,7.8,6.8,12.6l-3.8-0.3l1.6,1.5c3,2.1,8.6,6.4,8.8,10.2c-1.6,0.4-3.2,1.2-3.9,2.3 c2.3,2.8,4.9,4.5,7.3,7.9c1.6,2.3,1,3.6,0.9,6.6c-0.3,9.8,1.8,8.2-3,19.8c1.1,8.4,13.1,11-5,38.7c-0.9,1.3-1.7,2.4-2.7,3.5 l-3,3.3c-1.7,2.2,1.1,8.9-2.7,9.6l-1.1-3.7c-0.3,2.9-0.2,4.9-1.9,6.7c-2.1-0.2-0.2-0.4-1.5-0.8c-0.2,1.9-0.6,2.8-1.2,4.1 c-1.4,0-1.1,0.1-1.9-0.8c-0.7,1.2-0.2,1.1-1.4,2c-0.9-0.5-0.7-0.7-1.3-1.4c-0.2,2.2-0.3,4.3-1.8,5.3c-1.7-0.6-0.8-1-1.7-2.5 c-0.3,2.2-0.1,6.1-2.9,6.2l-0.8-2c-0.3,1.5-0.7,2.7-1.4,3.9c-0.5,1-1.2,1.5-2.1,2c-1.7,0.9-1.1,4.4-4.1,4.3 c-0.7-1-0.8-2.3-0.9-3.9c-0.6,2-0.7,3.2-1.6,5.1c-0.3,0.7-0.7,1.7-1.6,1.8c-1.2,0.2-0.9-0.4-1.9-0.9c-0.5,2.5-0.9,3.6-3.1,4.4 c-1.6,0.6-1.3,4.4-3.7,3.5c-0.7-0.2-0.4-0.2-0.6-0.4c-2.2-1.5,1.4,0.3-0.6-0.5c-0.7,1.5-0.8,1.9-2.1,2.5c-2.5-0.9,0,0.2-1.8-1.3 c-0.3,1.6-0.7,2.3-1.7,3.6c-2.2,0-0.6-0.1-2.1-0.7c-0.4,1.8-0.7,2.8-2.1,3.6c-0.9-0.3-1.1-0.9-1.8-1.3c-0.3,1.8-0.7,2.3-1.7,3.2 c-1.4-0.1-0.7-0.2-1.7-0.7c-0.8,1.1-0.8,1.8-2.7,2.1l-0.7-2.8c-0.5,2.1-1.2,4.1-2.8,5c-1.9-0.5-0.5-0.2-1.8-1.2 c-0.2,1.1-0.8,2-1.5,2.8c-1.2,1.2-1.1,0.7-2.5,0.2c-0.4,1.9-0.9,3.1-2.9,3.1c-0.6-1.4-0.4-1.7-0.4-3.4c-1,2.1-1.7,6.1-4.7,5.3 l-0.5-1.7c0-0.2-0.1-0.2-0.1-0.3c-0.4,1.7-2.1,5.4-3.7,3.7c-0.8-0.9-0.4-2.7-0.3-4.2c-2.2,1.3-2.2,5-5.2,4.5 c-0.2-0.4-0.2-0.6-0.4-1.2c0-0.1-0.1-0.2-0.1-0.3c0-0.1-0.1-0.2-0.1-0.3c0-0.1-0.1-0.1-0.1-0.3c0-0.2-0.1-0.2-0.1-0.3 c-0.6,1.3-1.1,2.2-2.8,2.3c-0.9-1,0.1,0.1-0.5-0.9l-0.6-1c-0.8,1.8-0.8,2.8-2.8,3.1c-0.6-1.6-0.2-3-0.2-4.7 c-0.1,0.7-1.1,2.9-2,3.9c-2.3,2.6-2-0.8-2-2.8l-0.8,1c-3.6,5.6-3.2,1.1-5-2.3c-0.2,1-0.4,1.8-0.6,2.5V613.3L692.6,613.3z M743.5,624.4l0.4-0.5c0.8-0.8,2.2-2.3,3.2-2.7c-0.1,2.4-0.3,3-1.1,5.2c1.7-0.7,2.1-1.3,3.3-2.5c1.5-1.5,1.8-2.4,2.6-2.6 c0.6,3.2-0.3,5.7-1.2,8.3l6.4-2.1c-1.8,2.7-3.8,2.5-5.3,4.2c1.1,0.3,7,1.9,7.3,0l-0.3-2.9c-0.2-1.4-0.6-2.7-0.9-4 c-2.6-10.7-11.8-29.3-26.2-20c-0.6,0.4-0.9,0.7-1.4,1l-5.2,4.5c-0.7,0.9-0.3,0.4-1.3,1.2c-0.6,0.8-1,1-1.5,1.9 c2-0.6,4.9-2.9,5.5-4.3c-0.1,2.6-2,4.2-2.9,5.6c1.4-0.3,1.8-0.5,2.9-1.1c0.7-0.4,0.5-0.3,1.2-0.8c0.9-0.6,0.6-0.4,1.6-0.9 c-0.1,1.1-0.3,1.4-0.9,2.2c-0.5,0.7-0.7,0.6-1.2,1.3c3.3-1,3.6-2.2,5.8-3.1c-0.3,1.7-2.2,4.7-3.4,5.5c4.3-1.3,5.6-3.9,7.7-4.9 c-0.3,2.2-1.5,3.9-2.3,5.5c3-2.3,3.9-4.9,5.1-5.3c0.3,2.6-1,5.6-1.9,7.9c3.6-1.4,4.8-4.2,6.7-5.3 C746.2,620.1,742.8,623.4,743.5,624.4z"/>
    </g>
    <path class="st5" d="M659.7,740.7c-2.1-5.1,0.9-9,4.6-13.9c-2.4-1.3-1-0.2-5.4-1.6c-6.4-2.1,4.1,2.1-3.8-1.2 c-9.9-4.1-3.8-4.2-12.5-9.8c-12.9-8.3-25.5,7.1-40.6,22.6c-6.2,2.3-7.1,3.5-13.3,4.7c-1.3,7.5-4.6,11.5-11.7,14.3 c6.3,11.2,2.4-1,5.7,10.3c-5.2,5.2-7.4,8.4-9.2,14.9c11.7,12.8,7.1-8.6,11,17.9c15.2-8,2.2-1.2,21.4,13 c11.3,8.3,18.8,8.1,27.9,14.9c19,14.1,28,21.5,62.9,21.6c29.5,0,44.4-7.2,62.3-20.1c15.4-11.1,19.8-8.2,36.2-25.7 c7.7-8.3-1.2-5.4,15.3-6.9l-2.8-9.6l12.3-4.1c-1.6-7.9-5.5-12-10.2-17.1l6.5-9.2c-5.9-3.3-10.8-7.2-13.9-14.6 c-23.6-8.8-23.4-21.3-43.7-30.8c-7.8-0.8-14.7,8.6-19.3,11.5l-11.3,5.7C752.5,751,701.9,682.3,659.7,740.7L659.7,740.7z M686.8,734"/>
    <path class="st6" d="M692.7,848.6c1.3,0,2.7,0,4.2,0c29.5,0,44.4-7.2,62.3-20.1c15.4-11.1,19.8-8.2,36.2-25.7 c7.7-8.3-1.2-5.4,15.3-6.9l-2.8-9.6l12.3-4.1c-1.6-7.9-5.5-12-10.2-17.1l6.5-9.2c-5.9-3.3-10.8-7.2-13.9-14.6 c-23.6-8.8-23.4-21.3-43.7-30.8c-7.8-0.8-14.7,8.6-19.3,11.5l-11.3,5.7c17.9,17.2-5.3-16.1-35.6-10.7v22.1 c7.5,8.9,12.3,15.1,0,1.3V848.6z"/>
    <path class="st7" d="M584.5,682.4c0.6,2.7,4.2,2.5,8.5,9.1c2.3,3.7,6,5.8,12.3,6.2c-0.1,0.1-0.3,0.1-0.4,0.3l-2.8,1.8l21.8-2.1 c-2.2-8.6,2.1-9.4,10.7-8.1c3-0.2,0.5,0.1,1.6-0.7l0-4.9c1.3-0.3,2.1-0.7,4.2-0.7c0.5,1.9-0.5,1.8,1.2,3.2 c5.3-2.3,10.3-7.3,13-8.5c-0.7-2.6,0.1,0.2-0.9-1.9c3.9-1.4,8.3-3.3,13.5-1.5c2.2,0.7,2,1.4,4,1.8c-0.5-2.3-0.5-1.1-1.8-3 c10.2,0,11.7,4.5,16.4,10.8c0.9-4.8-1.1-11,1.5-14.8l2.7,4.5c1.2-9.1,1.4-10.6,4-18.7c0.2,0,0.7,0.1,0.8,0.1c0.1,0,0.3,0,0.4,0 c0.1,0,0.3,0,0.4,0c0.5,0,0.7-0.1,1.6-0.2c2.9,7.6,3.1,10.4,3.9,19l1.7-2.9c0.6-0.8,0.5-0.7,1-1.2c0.3,0.5,0.4,0.4,0.7,1.5 c0.2,0.5,0.3,1,0.4,1.5c0.1,0.9,0.2,2.5,0.2,3.4c0,2.9-0.2,4.8,0.1,7.7c5.4-4.4,3.7-10.6,16.4-10.7c-1.1,1.6-1.3,0.9-1.7,2.9 c1.8-0.3,1.6-0.7,3.6-1.5c1.4-0.5,2.8-0.8,4.6-0.8c5.3-0.1,5.4,1.2,9.3,2.1c-0.5,1.4-2.1,1.2,2.5,4.5c3.8,2.8,12.1,8.8,16.3,8.6 c0.8-1.3,0.8-2.9,0.8-4.5l3.7,0c-0.1,1.1-0.1,2.5-0.1,3.6c0,0.5,0.1,2,0.2,2.4c1.3,4.3,3.6,1.4,4.6-0.8l4.7,0l1.2,3.2 c8.1,0,16.6-2.1,21.1-8.5c3-4.3,1.8-5.4,3.7-6.1c1.5,2.7,1.5,5.6,1,9.3l1.2,0.3c1.3,0.3,0.4-0.3,1.4,0.4c3.3-1.9,1.2-1.8,4.6-3.8 c1.1-0.6,0.8-0.3,2-1.1l-0.4-2.8c-0.2-4.7-6.7-12.7-9-15.9l6.1,2.8c-4-6.6-8.8-11.6-13.4-17.2l3.5-1.1c0.1-0.1,0.4-0.1,0.5-0.2 c-4.3-1.5-9.9-5.7-12.7-8.2c-2.2-2-2.1-4.1-2.4-7.7c-0.3-3.7-0.5-6.3-0.9-9.9c-0.4-3.5-1.1-4.7-4.1-5.6c-2.8-0.8-6.6-0.9-9.8-0.8 c-4.8,0.2-6.6-5.2-10.1-8.1c-24.1-20.1-8.2,0.7-35.7-6.8c1-2.5,3.4-4.4,5-5.9c-3.8,1.1-9.8,5-12.3,5.2l1.8-6.4 c-3.1,1.6-4.7,5-8.4,5.7c-2.1-1.6-4.7-6.6-8.3-6.7c-3.6,0-6.1,5-8.3,6.7c-3.2-0.4-6-4.2-8.4-5.8l2,6.4c-3.9,0-8.2-5-12.8-5 c2,1,5.1,3.9,5.4,6c-31,3.2-25.6-4.5-14,2.6c-20.4-20.1-24.4,16.2-41.6,12.9c-6.3,1.7-3.9,12.2-5.7,20.1c-0.8,3.7-8.1,8.2-11.4,10 l-3.3,2.2l4.4-0.2c-1.8,3.5-11.2,12.9-13.6,17.7l6.1-2.8C592.1,667.6,584.7,677.8,584.5,682.4z"/>
    <path class="st8" d="M690.4,670c0.8-5.7,1.3-7.9,3.5-14.6c0.2,0,0.7,0.1,0.8,0.1c0.1,0,0.3,0,0.4,0c0.1,0,0.3,0,0.4,0 c0.5,0,0.7-0.1,1.6-0.2c2.9,7.6,3.1,10.4,3.9,19l1.7-2.9c0.6-0.8,0.5-0.7,1-1.2c0.3,0.5,0.4,0.4,0.7,1.5c0.2,0.5,0.3,1,0.4,1.5 c0.1,0.9,0.2,2.5,0.2,3.4c0,2.9-0.2,4.8,0.1,7.7c5.4-4.4,3.7-10.6,16.4-10.7c-1.1,1.6-1.3,0.9-1.7,2.9c1.8-0.3,1.6-0.7,3.6-1.5 c1.4-0.5,2.8-0.8,4.6-0.8c5.3-0.1,5.4,1.2,9.3,2.1c-0.5,1.4-2.1,1.2,2.5,4.5c3.8,2.8,12.1,8.8,16.3,8.6c0.8-1.3,0.8-2.9,0.8-4.5 l3.7,0c-0.1,1.1-0.1,2.5-0.1,3.6c0,0.5,0.1,2,0.2,2.4c1.3,4.3,3.6,1.4,4.6-0.8l4.7,0l1.2,3.2c8.1,0,16.6-2.1,21.1-8.5 c3-4.3,1.8-5.4,3.7-6.1c1.5,2.7,1.5,5.6,1,9.3l1.2,0.3c1.3,0.3,0.4-0.3,1.4,0.4c3.3-1.9,1.2-1.8,4.6-3.8c1.1-0.6,0.8-0.3,2-1.1 l-0.4-2.8c-0.2-4.7-6.7-12.7-9-15.9l6.1,2.8c-4-6.6-8.8-11.6-13.4-17.2l3.5-1.1c0.1-0.1,0.4-0.1,0.5-0.2 c-4.3-1.5-9.9-5.7-12.7-8.2c-2.2-2-2.1-4.1-2.4-7.7c-0.3-3.7-0.5-6.3-0.9-9.9c-0.4-3.5-1.1-4.7-4.1-5.6c-2.8-0.8-6.6-0.9-9.8-0.8 c-4.8,0.2-6.6-5.2-10.1-8.1c-24.1-20.1-8.2,0.7-35.7-6.8c1-2.5,3.4-4.4,5-5.9c-3.8,1.1-9.8,5-12.3,5.2l1.8-6.4 c-3.1,1.6-4.7,5-8.4,5.7c-2.1-1.6-4.7-6.6-8.3-6.7c-2,0-3.7,1.5-5.1,3.1V670z"/>
    <path class="st9" d="M627.9,630.2l-0.5,2.2c2.4,0.2,5.5,0.2,7.5-0.8c-0.1-0.1-0.2-0.2-0.2-0.2l-2.5-1.7c-0.9-0.6-1.8-1-2.4-2.2 l6.3,2.1c-0.9-2.6-2.1-5.7-1.2-8.4c0.9,0.4,0.6,0.3,1.2,1.2c0.9,1.3,3,3.3,4.5,3.8c-0.5-2.1-0.9-2.7-1.2-5.1 c1.7,0.8,1.6,1.5,4,2.9c-0.6-1-2.7-5.7-2.6-7.1c0-1.9-0.1-0.7,0.5-1.4c0.5,0.7,0.5,1,1.2,1.6c1.3,1.3,3,3,4.9,3.6 c-0.6-2.4-2.2-4.7-1.7-7.8c1.5,1,2.9,4.4,5,5.2c-0.8-1.9-2.2-3.1-2.1-5.5c1.2,0.8,3.4,3.4,7.2,4.6c-1.4-1.9-2.3-2.5-3.1-5.2 c2.1,0.9,1.4,1.5,5.9,3.2c-0.7-1.1-2.2-2-2.2-3.6c2,0.7,3.1,2.5,5.9,2.9c-1.2-1.1-2.8-3.2-2.9-5.2c1.6,1,3,3.3,5.6,4.1 c-0.5-1.2-1.3-1.5-2.8-2.9c-2.8-2.7-5.4-5.3-9.2-7c-1.3-0.6-1.4-0.3-2.3-1.6c0.7-0.7,0.1-0.3,1.2-0.6l-2.7-0.6 c0.6,1,0.2,0.2,0.4,1.6c-3.7-0.1-1.8-0.9-5.7,0.4c-3.4,1.1-0.6,0.2-3.9,2.2c-1.6,1-0.5,0.1-1.5,1.7c-1.7,2.8-0.3-1.6-4,5.3 C631.6,616.9,628.5,622.5,627.9,630.2z"/>
    <path class="st9" d="M723.7,611.3c-0.6,0.8-1,1-1.5,1.9c2-0.6,4.9-2.9,5.5-4.3c-0.1,2.6-2,4.2-2.9,5.6c1.4-0.3,1.8-0.5,2.9-1.1 c0.7-0.4,0.5-0.3,1.2-0.8c0.9-0.6,0.6-0.4,1.6-0.9c-0.1,1.1-0.3,1.4-0.9,2.2c-0.5,0.7-0.7,0.6-1.2,1.3c3.3-1,3.6-2.2,5.8-3.1 c-0.3,1.7-2.2,4.7-3.4,5.5c4.3-1.3,5.6-3.9,7.7-4.9c-0.3,2.2-1.5,3.9-2.3,5.5c3-2.3,3.9-4.9,5.1-5.3c0.3,2.6-1,5.6-1.9,7.9 c3.6-1.4,4.8-4.2,6.7-5.3c0.3,4.5-3.1,7.9-2.5,8.8l0.4-0.5c0.8-0.8,2.2-2.3,3.2-2.7c-0.1,2.4-0.3,3-1.1,5.2 c1.7-0.7,2.1-1.3,3.3-2.5c1.5-1.5,1.8-2.4,2.6-2.6c0.6,3.2-0.3,5.7-1.2,8.3l6.4-2.1c-1.8,2.7-3.8,2.5-5.3,4.2c1.1,0.3,7,1.9,7.3,0 l-0.3-2.9c-0.2-1.4-0.6-2.7-0.9-4c-2.6-10.7-11.8-29.3-26.2-20c-0.6,0.4-0.9,0.7-1.4,1l-5.2,4.5 C724.3,610.9,724.7,610.5,723.7,611.3z"/>
    <path class="st10" d="M724.8,736.3c-0.7,1.6-2.3,2.1-3.7,2.9c-2.6,1.5-5.4,2.9-7.8,4.7c-20.8,15.4-18.1,17.4-39.7,0.1 c-2.5-2-8.5-4.9-11.5-6.9c0-0.7-0.1-0.3,0.2-1c-0.6-0.3,0.2-0.4,0.4-1.9c-1.9,0.1-1.4,0.2-2.7,0.7c-0.8,0.3-1.1,0.1-1.5,0.8 c0.8-1.3,2.1-2.1,2.5-2.5c0.1-0.1,0.2-0.2,0.3-0.3c-1.6,0.2-6.6,1.7-6.9,2.7c0.5-0.2,1.4-1.9,1.7-2.8c-1.7,0.4-3.6,1.1-4.2,2.1 c-0.7-0.5,0.2-1-3.5,0.2c-1,0.3-3,0.7-3.5,1.5c0.5,0.2,1.6-1,2.7-1.4c-0.7-0.8,0.8-1.2-2.2-0.8c-1.9,0.2-4,0.9-5.6,2.2 c0.9-0.3,0.6-0.2,1.4-0.8l1.5-1.3c-1.7-0.3-3.4,0-5,0.3c-2.5,0.5-1,0.3-1,0.5l3.6-2.8c-1.2-0.8-2.9-1.3-4.4-1.6 c0,0-0.9,0.1-1.3,0.5l2.1,0.9c0.9,0.2,1.4,0.3,2.1,0.5c-0.7-0.1,0.8-0.4-0.9,0.1c-1.4,0.4-1.8,1.6-2.5,2.4 c0.2,1.5,0.1,0.9,0.7,1.5c-0.1,0.1-0.2,0.1-0.2,0.2l-0.4,0.4c-0.4,0.4-0.1,0.1-0.5,0.6c-0.2,0.3-0.6,0.9-0.7,1.3 c-0.4,1-0.6,2.3-0.6,3.6c0.2,6.7,8.6,0.9,19.2,6.4c32.7,17,30.3,25.4,35.3,25.6c28.7,1,17.2-14.2,57.8-31.2c2-0.8,5.2-1.5,7.2-2.5 c0.2-1.9-0.3-2.2-1.1-3.5c-1.2-1.9-0.1-4.2-3.5-4.9c-0.9-0.2-0.1-0.2-0.6,0l2.8-0.7c1-0.4,0.6-0.1,1.2-0.7 c-0.6-0.9-0.9-1.2-1.9-1.9c-0.9-0.6-1.4-0.8-2.4-1.1c1,0.1,2.7-0.6,3.3-1.1l-1.3-1.6l-0.3,0.8c0,0.8-0.3,0.2,0.3,0.4 c-1.3,0.1-2.6,0.7-3.5,1.7c0.1,0.1,0.2,0.1,0.3,0.2c0.1,0.1,0.2,0.2,0.3,0.2l3.2,1.8c0.5,0.4,0.3,0.7,0.7,0.2 c-1.8,0.2-2.8,0.4-4.3,1.4c0.5,0.6,0.1,0.2,0.9,0.8l2.7,1.8c-1.1-0.3-2.9-0.9-4.2-0.8c-2.6,0.3-0.6-0.4-1.7,0.9 c1.2,0.3,1.8,1,2.8,1.4c-0.5-1.2-5.4-2.1-7.3-2.1c0.3,1,1.1,2,1.7,1.7c-2.3-0.7-3.5-1.6-6.2-1.7c0.4,1.5-0.6,0.9,0.7,1 c-1.3-1.3-2.8-2.3-5.2-2.8c0.4,1,1.2,2.4,1.8,2.9c-0.9-1.2-4.1-2.3-5.9-2.5c0.4,1.5,0.6,1.6,1.9,2.6c-0.7-1-2.7-1.5-4.3-1.6 C724.3,736.5,724,734.8,724.8,736.3z"/>
    <path class="st11" d="M679.3,701.8c3.7-0.5,6.6-1.9,11.3-1.9c3-1.5,15.3,6.6,19.6,3.3c-0.4-1.2-11.9-10.6-7.6-20.1 c1.3-2.8,4.2-5.4,7.2-6.5l0.9-2c0.1-1.5,0.1-0.5-0.4-0.7c-1.9,0.9-6,0.6-13.2,4.8c-1.4,0.8-2.3,1.7-3.8,2.6 c-2.1-1.2-2.3-1.7-6.3-3.9c-3.5-1.9-4.5-1.3-6.2,1.3c1.1,2.1,9.1,7.4-0.7,20.7C678.4,701.9,678.9,701.3,679.3,701.8z"/>
    <path class="st12" d="M679.3,701.8c-3.5,2.6-4.2,1.6-6.5,3.4l-2.6,2c-0.1,0-0.1,0.1-0.2,0.1l-2.1,2c-5.1,4.8-7.7,16.8-3.8,23.6 c0.5,1,1.1,1.1,1.8,1.9c2,2.4,12,1.2,15.3,0.3c2.4-0.1,9.9-1.7,11.5-2.8c0.4-1.5,0.4-3.1-0.6-4.2c-5.6-1.5-14.4-13.4-7-16.6 c5-2.2,22.2-3.6,18.7,6.9c-1.4,4.1-5.3,8.8-9.3,9.8c-1,0.9-0.8-0.1-0.8,4.4l11.1,2.5c3.7,0.8,13.3,2.4,15.8-0.2 c0.1-0.1,0.2-0.3,0.2-0.2c0.3,0.6,5-6,3.2-14c-0.9-4.2-1.6-6.1-4-9.5l-3.4-3.6c-0.6-0.4-0.5-0.2-1.1-0.7 c-4.8-4.4-9.8-5.3-15.9-6.4c-3.2-0.6-5.7-0.3-9-0.5C685.9,699.9,683.1,701.3,679.3,701.8z"/>
    <g>
      <path class="st13" d="M659.7,705.7c6.2,0,11.2-5,11.2-11.2s-5-11.2-11.2-11.2s-11.2,5-11.2,11.2S653.5,705.7,659.7,705.7z"/>
      <path class="st14" d="M657.6,698.1c3.1,0,5.6-2.5,5.6-5.6c0-3.1-2.5-5.6-5.6-5.6s-5.6,2.5-5.6,5.6 C652,695.6,654.5,698.1,657.6,698.1z"/>
    </g>
    <g>
      <path class="st13" d="M726.2,703c6.2,0,11.2-5,11.2-11.2c0-6.2-5-11.2-11.2-11.2c-6.2,0-11.2,5-11.2,11.2 C715,698,720,703,726.2,703z"/>
      <path class="st14" d="M724,695.5c3.1,0,5.6-2.5,5.6-5.6c0-3.1-2.5-5.6-5.6-5.6c-3.1,0-5.6,2.5-5.6,5.6 C718.4,692.9,720.9,695.5,724,695.5z"/>
    </g>
    <path class="st15" d="M680.4,710.1c-9.1,13.8-2.5,16.8,10.9,22.8c-0.5,5,0.5,5.4-3.6,6.7c-1.1,0.4-2.8,0.8-4.1,1 c-3.3,0.4-6.4,0.4-9.7,0.5l-6.4-0.2c0.7,1.2,0.1,1,1.9,2.1c0.6,0.4,2.3,0.8,3.1,1c2.4,0.5,4.9,0.6,7.3,0.4c1.8-0.1,5.4-0.5,7-0.9 c2.2-0.5,3.7-1.7,6.2-1.7c0.8,0,21.8,6.8,25.4-0.8l-6.2,0.1c-3.2,0-6.5,0-9.7-0.5c-1.4-0.2-6.1-1.2-7.1-2.6 c-0.6-1.4-0.9-3.8-0.5-4.9c2.5-3.2,22.9-4.4,11.4-22.3c-1.8-0.9-2.9-2.1-5.4-3.2c-2.2-0.9-4.6-1.3-7.2-1.3 C686.9,706.1,684.7,708.3,680.4,710.1z" style=""/>
  </g>
</svg>